<?xml version="1.0" encoding="UTF-8"?>
<svg id="Capa_1" data-name="Capa 1" xmlns="http://www.w3.org/2000/svg" xmlns:xlink="http://www.w3.org/1999/xlink" viewBox="0 0 331.51 90.5">
  <defs>
    <style>
      .cls-1 {
        clip-path: url(#clippath);
      }

      .cls-2 {
        fill: none;
      }

      .cls-2, .cls-3, .cls-4, .cls-5, .cls-6, .cls-7, .cls-8, .cls-9, .cls-10 {
        stroke-width: 0px;
      }

      .cls-3 {
        fill-rule: evenodd;
      }

      .cls-3, .cls-5 {
        fill: #390;
      }

      .cls-11 {
        isolation: isolate;
      }

      .cls-6 {
        fill: #fff;
      }

      .cls-7 {
        fill: #ffef00;
      }

      .cls-8 {
        fill: red;
      }

      .cls-9 {
        fill: #005aeb;
      }

      .cls-10 {
        fill: #009334;
      }
    </style>
    <clipPath id="clippath">
      <rect class="cls-2" x="74.89" y="15.51" width="252" height="36.8"/>
    </clipPath>
  </defs>
  <g class="cls-1">
    <g>
      <path class="cls-5" d="m211.29,25.81h6.1v4.9h-6.1v20.8h-4.9v-20.8h-6.1v-4.9h6.1v-10.3h4.9v10.3Z"/>
      <path class="cls-3" d="m187.29,25.81c-3.1,0-6,1.1-8.4,3-3,2.8-4.6,6.1-4.6,9.9,0,3,1.1,6,3,8.3,2.7,3,6,4.5,9.8,4.5h.1c3.2,0,6.3-1.2,8.7-3.4l-3.2-3.9h0c-1.5,1.4-3.4,2.2-5.5,2.2-1.2,0-2.4-.3-3.5-.8-.9-.4-1.7-1.1-2.3-1.8-.7-.7-1.1-1.6-1.5-2.6h20c.2-.9.2-1.7.3-2.6,0-3-1.1-6-3-8.3-2.9-3-6.1-4.5-9.9-4.5Zm-7.3,10.3l.5-1.3c1.7-2.6,4-3.9,6.7-3.9,1.3,0,2.6.4,3.8,1,1.6,1,2.8,2.4,3.5,4.2h-14.5Z"/>
      <path class="cls-5" d="m115.89,46.41c2.6,0,4.8-1.2,6.5-3.5h0l3.4,4-1.8,1.8c-2.3,1.8-5.1,2.8-8,2.8h-.2c-4,0-7.4-1.7-10.2-5-1.7-2.3-2.6-5-2.6-7.9,0-3.6,1.4-6.8,4.2-9.5,2.4-2.2,5.5-3.3,8.7-3.3,3.8,0,7.1,1.5,9.8,4.6l-3.3,4s-.1,0-.1.1c-1.6-2.3-3.8-3.5-6.5-3.5s-4.8,1.2-6.5,3.7c-.7,1.2-1.1,2.6-1.1,4,0,2.8,1.3,5,4,6.7,1.1.6,2.4,1,3.7,1Z"/>
      <path class="cls-3" d="m148.69,28.31h0l.1-2.5h5.1v25.7h-5.1v-2.5c-2.4,1.7-4.9,2.5-7.4,2.5h-.7c-3.9,0-7.2-1.7-10-5.1-1.7-2.3-2.6-5-2.6-7.8,0-4.3,1.8-7.8,5.5-10.6,2.2-1.5,4.9-2.3,7.5-2.3,2.8.1,5.4,1,7.6,2.6Zm-1.4,14.8c.9-1.2,1.4-2.7,1.4-4.2v-.4c0-2.7-1.3-4.9-3.8-6.6-1.2-.7-2.6-1.1-3.9-1.1-2.5,0-4.5,1.1-6.2,3.3-.9,1.3-1.5,2.9-1.5,4.5,0,2.9,1.4,5.2,4.1,6.9,1.1.6,2.3.9,3.5.9h.3c2.4,0,4.4-1.1,6.1-3.3Z"/>
      <path class="cls-5" d="m164.19,28.71c2.7-2,6.1-2.9,10.2-2.9v5.1c-5,0-8.2,1.7-9.7,5.2-.4.9-.6,1.8-.6,2.8v12.6h-5.1v-25.7h5.1l.1,2.9h0Z"/>
      <path class="cls-5" d="m92.29,38.61l10.7-12.8h-6.6l-.7.7-6.7,8.1-7.4-8.8h-6.5l1,1.2,9.4,11.7h0l-10.6,12.7v.1h6.7l7.3-8.8,7.5,8.9h6.7l-10.8-13Z"/>
      <path class="cls-5" d="m223.49,52.01c-.8,0-1.7-.3-2.3-.8-.7-.5-1.1-1.3-1.3-2.1s0-1.7.3-2.4c.4-.8,1-1.3,1.8-1.7.8-.3,1.7-.4,2.5-.1.8.2,1.5.8,2,1.5s.7,1.6.6,2.4c-.1.8-.5,1.6-1.1,2.2-.3.3-.7.6-1.2.8-.4.1-.9.2-1.3.2Z"/>
      <path class="cls-5" d="m247.29,30.41c1.1.5,2.1,1.3,2.9,2.2l3.8-3.4c-1.3-1.4-2.8-2.4-4.5-3.1s-3.6-1-5.5-1-3.8.3-5.6,1c-1.6.6-3.1,1.6-4.3,2.8-1.2,1.2-2.2,2.7-2.8,4.4-.7,1.8-1,3.7-1,5.6s.3,3.8,1,5.5c.6,1.6,1.6,3.1,2.8,4.3s2.7,2.2,4.3,2.8c1.8.7,3.6,1,5.5,1,1.8,0,3.7-.3,5.4-.9,1.7-.6,3.3-1.7,4.5-3l-3.5-3.5c-.8.9-1.7,1.6-2.8,2.2-1.1.5-2.3.8-3.6.7-1.2,0-2.4-.2-3.5-.7-1-.4-1.9-1.1-2.6-1.9-.7-.8-1.3-1.8-1.7-2.8-.4-1.1-.6-2.3-.6-3.5s.2-2.4.5-3.5.8-2.1,1.5-3c.7-.9,1.5-1.6,2.5-2,1.1-.5,2.3-.8,3.6-.7,1.4-.3,2.6-.1,3.7.5Z"/>
      <path class="cls-3" d="m255.69,38.61c0-1.8.4-3.7,1.1-5.3,1.1-2.5,2.9-4.6,5.1-6.1,2.3-1.5,4.9-2.3,7.7-2.3s5.4.8,7.7,2.3,4.1,3.6,5.1,6.1c.7,1.7,1.1,3.5,1.1,5.3s-.3,3.6-1,5.3-1.7,3.2-3,4.5c-1.3,1.2-2.8,2.2-4.4,2.9-2.6,1.1-5.4,1.4-8.1.8-2.7-.5-5.2-1.8-7.2-3.8-1.3-1.3-2.3-2.8-3-4.5-.7-1.6-1.1-3.4-1.1-5.2h0Zm5.3,0c0,1.2.2,2.5.6,3.7.4,1.1,1,2,1.7,2.9.8.8,1.7,1.4,2.7,1.9,2.3.9,4.9.9,7.2,0,1-.4,1.9-1.1,2.7-1.9.8-.8,1.3-1.8,1.7-2.9.4-1.2.6-2.4.6-3.7,0-1.2-.2-2.5-.6-3.7-.4-1.1-.9-2-1.7-2.9-.8-.8-1.7-1.5-2.7-1.9-2.3-.9-4.9-.9-7.2,0-1,.4-1.9,1.1-2.7,1.9-.8.8-1.3,1.8-1.7,2.9-.4,1.3-.6,2.5-.6,3.7Z"/>
      <path class="cls-5" d="m292.09,25.61h-4.6v26.1h5v-13.6c0-1.3.2-2.6.6-3.8.3-1,.8-1.9,1.5-2.7.6-.7,1.3-1.2,2.2-1.6.8-.3,1.7-.5,2.6-.5,1,0,2,.2,2.9.6.7.4,1.3,1,1.7,1.8s.7,1.7.8,2.6c.1,1.1.2,2.3.2,3.4v13.7h5v-14.2c0-2.3.5-4.2,1.5-5.7s2.7-2.2,5.1-2.2c1,0,2,.2,2.9.6.7.4,1.3,1,1.7,1.7.4.7.7,1.6.8,2.4.1.9.2,1.9.2,2.9v14.5h5v-15.1c0-1.4-.1-2.9-.4-4.3-.3-1.3-.8-2.6-1.5-3.7-.8-1.1-1.8-2-3-2.6-1.6-.7-3.2-1.1-5-1-1.6,0-3.2.4-4.7,1.2-1.5.8-2.8,2.1-3.6,3.6-.7-1.5-1.9-2.7-3.3-3.6-1.5-.9-3.2-1.3-4.9-1.2-1.1,0-2.2.2-3.2.5-.9.3-1.7.7-2.5,1.3-.7.4-1.2,1-1.8,1.6-.4.4-.7.9-.9,1.4h-.1v-4.1h-.2Z"/>
    </g>
  </g>
  <g class="cls-11">
    <path class="cls-10" d="m240.16,61.68c-.07.11-.13.19-.2.23s-.15.07-.26.07-.21-.04-.33-.11c-.12-.07-.26-.15-.42-.23-.16-.08-.34-.16-.55-.23s-.45-.11-.72-.11c-.49,0-.85.11-1.09.33-.24.22-.36.5-.36.85,0,.22.07.41.2.56.13.15.31.27.52.38.22.11.46.2.74.29.27.08.56.18.85.28.29.1.57.22.85.35.27.13.52.31.74.51s.39.46.52.75c.13.3.2.66.2,1.08,0,.46-.08.89-.24,1.3s-.39.75-.7,1.06c-.3.3-.68.54-1.12.71-.44.17-.95.26-1.51.26-.32,0-.64-.03-.96-.1-.32-.06-.63-.16-.92-.27-.3-.12-.58-.26-.84-.42-.26-.16-.49-.34-.69-.54l.62-.99c.05-.07.12-.14.2-.18.08-.05.17-.07.27-.07.13,0,.26.05.4.14.14.09.3.2.48.31.18.11.39.21.63.31.24.09.53.14.86.14.49,0,.87-.11,1.14-.34.27-.22.4-.56.4-1,0-.26-.07-.46-.2-.62s-.31-.29-.52-.4c-.21-.11-.46-.2-.73-.28-.27-.08-.56-.16-.85-.25-.29-.09-.57-.21-.85-.34-.28-.13-.52-.3-.73-.52-.21-.21-.39-.48-.52-.8-.13-.32-.2-.71-.2-1.18,0-.38.08-.74.22-1.1.15-.35.37-.67.66-.94.29-.27.64-.5,1.07-.66.42-.17.91-.25,1.45-.25.61,0,1.18.09,1.7.28.52.19.96.45,1.32.79l-.52.99Z"/>
    <path class="cls-10" d="m244.48,69.89h-2.11v-10.15h2.11v10.15Z"/>
    <path class="cls-10" d="m253.78,61.43h-2.96v8.45h-2.1v-8.45h-2.96v-1.69h8.03v1.69Z"/>
    <path class="cls-10" d="m257.16,69.89h-2.11v-10.15h2.11v10.15Z"/>
    <path class="cls-10" d="m269.09,64.81c0,.74-.12,1.43-.37,2.06-.25.63-.6,1.18-1.06,1.64-.46.46-1,.82-1.64,1.09s-1.35.4-2.13.4-1.49-.13-2.13-.4-1.19-.63-1.64-1.09c-.46-.46-.81-1.01-1.06-1.64s-.37-1.32-.37-2.06.12-1.43.37-2.06.6-1.18,1.06-1.64c.46-.46,1-.82,1.64-1.09s1.35-.4,2.13-.4,1.49.13,2.13.4,1.18.63,1.64,1.09c.45.46.81,1.01,1.06,1.64.25.63.37,1.32.37,2.05Zm-2.15,0c0-.53-.07-1.01-.21-1.43s-.34-.78-.6-1.08c-.26-.3-.58-.52-.96-.68-.38-.16-.8-.23-1.28-.23s-.9.08-1.28.23c-.38.16-.7.38-.96.68-.26.3-.46.66-.6,1.08s-.21.9-.21,1.43.07,1.01.21,1.44.34.78.6,1.07c.26.29.58.52.96.67.38.16.8.23,1.28.23s.9-.08,1.28-.23c.38-.16.69-.38.96-.67.26-.29.46-.65.6-1.07s.21-.9.21-1.44Z"/>
    <path class="cls-10" d="m283.75,64.81c0,.74-.12,1.43-.37,2.06-.25.63-.6,1.18-1.06,1.64-.45.46-1,.82-1.64,1.09s-1.35.4-2.12.4-1.49-.13-2.13-.4-1.19-.63-1.64-1.09c-.46-.46-.81-1.01-1.06-1.64-.25-.63-.38-1.32-.38-2.06s.12-1.43.38-2.06c.25-.63.6-1.18,1.06-1.64.46-.46,1-.82,1.64-1.09s1.35-.4,2.13-.4,1.49.13,2.12.4,1.19.63,1.64,1.09c.46.46.81,1.01,1.06,1.64.25.63.37,1.32.37,2.05Zm-2.15,0c0-.53-.07-1.01-.21-1.43-.14-.42-.34-.78-.6-1.08s-.58-.52-.96-.68c-.38-.16-.8-.23-1.28-.23s-.9.08-1.28.23c-.38.16-.7.38-.96.68-.26.3-.46.66-.61,1.08-.14.42-.21.9-.21,1.43s.07,1.01.21,1.44c.14.42.34.78.61,1.07.26.29.58.52.96.67.38.16.8.23,1.28.23s.9-.08,1.28-.23.69-.38.96-.67c.26-.29.46-.65.6-1.07.14-.42.21-.9.21-1.44Z"/>
    <path class="cls-10" d="m287.4,61.38v2.8h3.65v1.65h-3.65v4.05h-2.11v-10.15h6.46v1.64h-4.35Z"/>
    <path class="cls-10" d="m295.32,69.89h-2.11v-10.15h2.11v10.15Z"/>
    <path class="cls-10" d="m304.35,67.39c.12,0,.21.04.29.13l.83.89c-.41.52-.92.92-1.53,1.19-.61.27-1.33.41-2.17.41-.76,0-1.44-.13-2.05-.39-.61-.26-1.12-.62-1.54-1.08s-.75-1.01-.98-1.64c-.23-.63-.34-1.33-.34-2.08,0-.5.05-.98.16-1.44.11-.45.27-.87.48-1.25.21-.38.46-.73.76-1.03s.63-.57,1-.79.78-.38,1.22-.5.91-.17,1.41-.17c.37,0,.73.03,1.06.1.33.06.64.16.93.27.29.12.56.26.8.42.25.17.47.35.66.54l-.71.96c-.04.06-.1.11-.16.16-.07.05-.15.07-.27.07s-.22-.04-.34-.12c-.11-.08-.25-.17-.42-.27-.17-.1-.37-.19-.62-.27-.25-.08-.57-.12-.95-.12-.42,0-.81.08-1.17.23-.35.15-.66.38-.91.67-.25.29-.45.65-.59,1.07-.14.42-.21.91-.21,1.45s.08,1.03.23,1.46c.15.43.36.79.62,1.08.26.29.57.52.92.67s.73.23,1.13.23c.24,0,.45-.01.65-.03.19-.02.37-.06.54-.12.17-.06.32-.13.47-.22.15-.09.29-.2.44-.34.05-.04.11-.08.16-.1.06-.03.12-.04.18-.04Z"/>
    <path class="cls-10" d="m308.77,69.89h-2.11v-10.15h2.11v10.15Z"/>
    <path class="cls-10" d="m319.77,69.89h-1.63c-.18,0-.33-.04-.44-.13-.11-.09-.2-.2-.25-.33l-.69-1.94h-4.04l-.69,1.94c-.05.12-.13.22-.24.32-.12.1-.26.14-.44.14h-1.64l3.96-10.15h2.15l3.96,10.15Zm-3.52-3.85l-1.1-3.1c-.07-.16-.13-.35-.21-.57-.07-.22-.14-.46-.21-.71-.07.26-.13.5-.21.72-.07.22-.14.41-.21.58l-1.09,3.09h3.01Z"/>
    <path class="cls-10" d="m326.73,68.18v1.71h-6.02v-10.15h2.1v8.44h3.92Z"/>
  </g>
  <g>
    <path class="cls-4" d="m38.26,45.76c-.03.2-.07.39-.1.6l.1-.6Z"/>
    <path class="cls-2" d="m40.16,19.1c.77-.05,4.48-.2,8.28,1.4h0c-3.8-1.61-7.51-1.46-8.28-1.4Z"/>
    <path class="cls-2" d="m38.67,28.08c-.1-.02-.2-.06-.3-.13.1.07.2.11.29.13h0Z"/>
    <path class="cls-2" d="m47.73,15.64c-.54-1.37-1.47-2.71-3.05-3.54,1.58.83,2.51,2.17,3.05,3.54Z"/>
    <path class="cls-2" d="m40.01,19.11h0c.15-.64.34-1.28.54-1.89-.2.62-.39,1.25-.54,1.89Z"/>
    <path class="cls-2" d="m21.26,25.67c-1.33.26-2.83.82-3.52,2.04-.08.14-.14.28-.2.42.06-.14.12-.29.2-.42.69-1.22,2.19-1.78,3.52-2.04Z"/>
    <path class="cls-2" d="m21.64,42.76s.05.05.07.08c.12.11.24.22.36.33v-.02c-.15-.12-.29-.26-.43-.39Z"/>
    <path class="cls-2" d="m17.38,31.74c-.09-.47-.16-.98-.18-1.49.02.51.08,1.02.17,1.49.24,1.21.64,2.19.74,2.44-.1-.24-.5-1.22-.74-2.44,1.69.51,3.4.93,5.14,1.26-.22,2.52-.34,4.95-.4,6.45.06-1.5.17-3.94.4-6.45.09-.98.19-1.98.32-2.94-.12.96-.23,1.95-.32,2.94-1.73-.33-3.45-.75-5.14-1.26Z"/>
    <path class="cls-2" d="m39.96,14.19c-.98,2.32-1.53,4.46-1.84,6.17.31-1.71.86-3.85,1.84-6.17Z"/>
    <path class="cls-2" d="m22.08,40.98h0c-1.82-2.05-3.08-4.72-3.63-6,.54,1.28,1.81,3.95,3.63,6Z"/>
    <path class="cls-2" d="m33.54,27.95c.1.03.2.06.31.08.17.03.33.04.5.07-.17-.02-.34-.04-.5-.07-.11-.02-.2-.05-.31-.08Z"/>
    <path class="cls-2" d="m44.42,11.98c.06.03.13.06.19.09-.06-.03-.13-.06-.19-.09Z"/>
    <path class="cls-2" d="m38.82,42.4h0c.21-1.25.84-4.67,1.4-7.58-.57,2.91-1.2,6.34-1.41,7.58Z"/>
    <path class="cls-2" d="m40.39,13.22h0c-.22.01-.63.04-1.16.11.52-.07.93-.1,1.15-.11Z"/>
    <path class="cls-2" d="m44.03,40.55c.07-.07.14-.13.21-.2,0-.04-.01-.08-.01-.12v.11c-.07.07-.13.14-.2.2Z"/>
    <path class="cls-2" d="m40.58,33.05s0-.04.01-.07c.63-3.12,1.2-5.29,1.2-5.29,1.27-.35,2.24-1.04,2.24-1.04h0s-.97.69-2.25,1.04c0,0-.57,2.17-1.2,5.29,0,.02,0,.04-.01.07Z"/>
    <path class="cls-2" d="m44.14,11.85s0,0,0,0c0,0,0,0,0,0Z"/>
    <path class="cls-2" d="m37.26,13.72c-1.53.41-3.3,1.14-4.66,2.47-.95.93-1.57,1.96-1.98,2.93.41-.97,1.03-2,1.99-2.93,1.36-1.33,3.13-2.06,4.66-2.47Z"/>
    <path class="cls-2" d="m34.59,16.99c0-.83.67-1.5,1.5-1.5h0c-.83,0-1.5.67-1.5,1.5s.67,1.5,1.5,1.5h0c-.83,0-1.5-.67-1.5-1.5Z"/>
    <path class="cls-2" d="m43.08,11.51s-.42.72-.97,1.87c.55-1.14.97-1.87.97-1.87,0,0,0,0,0,0Z"/>
    <path class="cls-6" d="m37.26,13.72c-1.53.41-3.3,1.14-4.66,2.47-.95.93-1.58,1.96-1.99,2.93-.87,2.06-.76,3.84-.76,3.84,0,0-.41,3.99,3.69,4.98.1.03.2.06.31.08.17.03.33.04.5.07,1.47.21,2.97.16,4.31-.02-.09-.02-.19-.06-.29-.13-.12-.09-.24-.22-.34-.43-.32-.73-.3-3.12-.3-3.12,0,0-.05-1.59.39-4.04.31-1.71.86-3.85,1.84-6.17.13-.32.27-.64.42-.97-.22.01-.63.04-1.15.11-.55.07-1.23.2-1.97.39Zm-1.17,4.76h0c-.83,0-1.5-.67-1.5-1.5s.67-1.5,1.5-1.5h0c.83,0,1.5.67,1.5,1.5s-.67,1.5-1.5,1.5Z"/>
    <path class="cls-9" d="m18.12,34.18s.02.05.03.06c.02.04.12.32.3.74.55,1.28,1.81,3.95,3.63,6,0,0,.01-.59.05-1.53.06-1.51.17-3.94.4-6.45-1.73-.33-3.45-.75-5.14-1.26.24,1.22.64,2.2.74,2.44Z"/>
    <path class="cls-8" d="m34.35,28.1c1.47.22,2.97.16,4.31-.02h0c-1.34.18-2.84.23-4.31.02Z"/>
    <path class="cls-8" d="m29.86,22.97s-.11-1.78.76-3.84c-.87,2.06-.76,3.84-.76,3.84,0,0-.41,3.99,3.69,4.98-4.1-.99-3.69-4.98-3.69-4.98Z"/>
    <path class="cls-8" d="m37.26,13.72c.74-.2,1.42-.32,1.97-.39-.55.07-1.23.2-1.97.39Z"/>
    <path class="cls-7" d="m44.67,12.1s-.04-.02-.06-.03c-.06-.03-.13-.06-.19-.09-.09-.04-.18-.09-.28-.13h0c-.33-.14-.68-.25-1.05-.34,0,0-.42.72-.97,1.87-.49,1.02-1.08,2.37-1.56,3.85-.2.62-.39,1.25-.54,1.89,0,0,.06,0,.15-.01.77-.05,4.47-.21,8.28,1.4,0,0,.23-2.48-.71-4.87-.54-1.37-1.47-2.71-3.05-3.54Z"/>
    <path class="cls-7" d="m21.26,25.67c-1.33.26-2.83.82-3.52,2.04-.08.14-.14.28-.2.42-.27.66-.35,1.39-.33,2.12.02.51.08,1.02.18,1.49,1.69.51,3.4.93,5.14,1.26.09-.98.19-1.98.32-2.94.23-1.78.53-3.42.91-4.61,0,0-1.16-.05-2.49.21Z"/>
    <path class="cls-4" d="m40.55,33.16h0c-.1.52-.21,1.08-.33,1.65.11-.58.22-1.14.33-1.65h0Z"/>
    <path class="cls-4" d="m40.39,13.22h0c-.15.33-.29.65-.42.97.13-.32.27-.64.42-.97Z"/>
    <path class="cls-4" d="m37.73,24.4s-.02,2.39.3,3.12c.09.21.21.34.34.43-.12-.09-.24-.22-.33-.43-.32-.73-.3-3.12-.3-3.12,0,0-.05-1.59.39-4.04-.44,2.46-.39,4.04-.39,4.04Z"/>
    <path class="cls-4" d="m18.12,34.18s.02.05.02.06c.02.04.12.32.3.74-.18-.42-.28-.7-.3-.74,0,0-.01-.03-.03-.06Z"/>
    <path class="cls-4" d="m22.08,40.98s.01-.58.05-1.53c-.04.94-.05,1.52-.05,1.53h0Z"/>
    <path class="cls-4" d="m40.55,33.16s.01-.08.02-.12c0,.04-.02.08-.02.12h0s0,0,0,0Z"/>
    <rect class="cls-4" x="40.55" y="33.16" width="0" height="0"/>
    <path class="cls-4" d="m44.62,12.07s.04.02.06.03c-.02-.01-.04-.02-.06-.03Z"/>
    <path class="cls-4" d="m44.14,11.85c.1.04.19.08.28.13-.09-.04-.18-.09-.28-.13Z"/>
    <path class="cls-4" d="m43.08,11.51h0c.38.09.73.2,1.05.34-.33-.13-.68-.25-1.05-.34Z"/>
    <path class="cls-4" d="m42.11,13.37c-.49,1.02-1.08,2.37-1.56,3.85.49-1.47,1.07-2.83,1.56-3.85Z"/>
    <path class="cls-4" d="m40.01,19.11s.06,0,.15-.01c-.09,0-.15.01-.15.01h0Z"/>
    <path class="cls-4" d="m48.44,20.5h0s.23-2.48-.71-4.87c.94,2.39.71,4.86.71,4.87Z"/>
    <path class="cls-4" d="m17.54,28.13c-.27.66-.35,1.39-.33,2.12-.02-.73.06-1.46.33-2.12Z"/>
    <path class="cls-4" d="m23.75,25.46c-.38,1.19-.68,2.83-.91,4.61.23-1.78.53-3.42.91-4.61,0,0-1.16-.05-2.49.21,1.33-.26,2.49-.21,2.49-.21Z"/>
    <path class="cls-4" d="m21.12,42.23c-1.19-1.28-2.24-2.81-3.11-4.48.78,1.54,1.81,3.13,3.11,4.48Z"/>
    <path class="cls-4" d="m36.1,15.48h0c.83,0,1.5.67,1.5,1.5s-.67,1.5-1.5,1.5h0c.83,0,1.5-.67,1.5-1.5s-.67-1.5-1.5-1.5Z"/>
    <path class="cls-4" d="m50.19,17.32c-.57-2.61-1.26-4.2-2.82-5.66-1.56-1.46-3.46-2.06-4.81-2.19-1.35-.13-3.5-.05-6.24.79-2.74.84-4.94,2.4-6.47,3.69-1.52,1.29-3.63,3.37-5.67,9.94,0,0-4.06-.36-6.53,1.57-2.47,1.93-2.02,4.86-1.98,5.64.01.19.11.77.35,1.6.03.13.06.25.1.37.06.24.14.48.22.72.04.13.08.26.13.39.09.26.18.52.28.78,0,.03.02.07.04.1.05.12.09.25.15.38.07.19.15.38.23.56.05.11.09.23.15.35h0c.1.24.2.47.31.69.11.24.23.48.36.72.88,1.67,1.93,3.2,3.11,4.48.17.18.34.36.52.53.14.13.28.26.43.39v.02c.59.53,1.2.99,1.84,1.39.04.02.07.05.11.07-.06-8.04.56-13.04.56-13.04,0,0,1.05-11.02,6.02-15.73,4.98-4.71,10.72-4.51,10.72-4.51-.35.63-.66,1.25-.95,1.86h0s0,0,0,0c-.15.33-.29.65-.42.97-.98,2.32-1.53,4.46-1.84,6.17-.44,2.45-.39,4.04-.39,4.04,0,0-.02,2.39.3,3.12.09.21.21.34.33.43.1.07.2.11.3.13.2.05.36,0,.36,0l.95-.08s-.61,2.55-1.54,6.67c-.93,4.13-1.63,9.67-1.63,9.67l-.1.56c.75-.24,1.48-.52,2.19-.85-.11-.59-.06-1.22.15-1.78-.15.08-.24.12-.24.12h0s0,0,0,0c.2-1.25.84-4.67,1.41-7.58.11-.58.22-1.14.33-1.65,0-.04.02-.08.02-.12,0-.02,0-.05.01-.07.63-3.11,1.2-5.29,1.2-5.29,1.08-.3,1.92-.83,2.17-.99.59-.32,1.03-.76,1.45-1.16-.05-.03.05.03,0,0,0,0,.64-.45,1.57-2.15,0,0-3.42-1.24-5.51-2.39.21,0,5.04.03,8.52,2.55,0,0,.77-3.62.21-6.24Zm-27.36,12.74c-.12.96-.23,1.95-.32,2.94-.22,2.52-.34,4.95-.4,6.45-.03.95-.05,1.53-.05,1.53h0s0,0,0,0c-1.82-2.05-3.08-4.72-3.63-6-.18-.43-.28-.7-.3-.74,0,0-.01-.03-.02-.06-.1-.25-.5-1.23-.74-2.44-.09-.47-.16-.98-.17-1.49-.02-.73.06-1.46.33-2.12.06-.14.12-.29.2-.42.69-1.22,2.19-1.78,3.52-2.04,1.33-.26,2.49-.21,2.49-.21-.38,1.19-.68,2.83-.91,4.61Zm25.6-9.56h0s0,0,0,0c-3.8-1.61-7.5-1.46-8.28-1.4-.09,0-.15.01-.15.01h0c.15-.64.34-1.28.54-1.89.49-1.47,1.07-2.83,1.56-3.85.55-1.14.97-1.87.97-1.87h0s0,0,0,0c.38.09.73.2,1.05.34h0c.1.04.19.09.28.13.06.03.13.06.19.09.02.01.04.02.06.03,1.58.83,2.51,2.17,3.05,3.54.94,2.39.71,4.87.71,4.87Z"/>
    <path class="cls-4" d="m36.1,18.49c.83,0,1.5-.67,1.5-1.5s-.67-1.5-1.5-1.5-1.5.67-1.5,1.5.67,1.5,1.5,1.5Z"/>
    <path class="cls-8" d="m32.6,16.2c1.36-1.33,3.13-2.06,4.66-2.47.74-.2,1.42-.32,1.97-.39.52-.07.93-.1,1.16-.11.28-.61.6-1.23.95-1.86,0,0-5.74-.2-10.72,4.51-4.98,4.71-6.02,15.73-6.02,15.73,0,0-.57,4.58-.57,12.01-.25,7.58-.24,16.18-.23,16.93,0,1.04.8,1.47,1.46,1.53.04,0,.07,0,.11,0,.46-6.6.97-12.25,1.4-16.56.37.53.87.87,1.42.87,0,0,0,0,0,0-1.35,11.42-1.79,21.54-1.83,21.94-.05.51.34,1.39,1.26,1.46.13,0,.23-.01.34-.02,1.22-9.32,2.58-18.14,3.58-24.33.37.58.88.95,1.46.95.07,0,.14-.02.21-.03-2.61,14.09-4.68,30.94-4.68,30.94,0,0,.01,1.15,1.03,1.25,1.02.1,1.2-1,1.2-1,1.6-12.86,4.25-25.48,5.86-32.59.03,0,.06-.02.09-.02l.1-.56s.69-5.54,1.63-9.67c.93-4.12,1.54-6.67,1.54-6.67l-.95.08s-.17.04-.36,0h0s0,0,0,0c-1.34.18-2.84.23-4.31.02-.17-.02-.33-.04-.5-.07-.11-.02-.2-.05-.31-.08-4.1-.99-3.69-4.98-3.69-4.98,0,0-.1-1.78.76-3.84.41-.97,1.03-2,1.98-2.93Zm2.29,28.28s.02.09.02.13c-.02,0-.05,0-.07.01.02-.05.04-.09.05-.14Z"/>
    <path class="cls-4" d="m36.8,44.19c-1.59,6.94-4.37,20-6.03,33.32,0,0-.18,1.1-1.2,1s-1.03-1.25-1.03-1.25c0,0,2.22-18.07,4.96-32.43-.67.09-1.32.15-1.96.19-.82,4.95-2.31,14.22-3.61,24.15-.09,0-.18.03-.29.02-.78-.06-1.11-.8-1.07-1.23.04-.39.52-11.63,2.11-22.91-.64-.03-1.25-.07-1.85-.14-.39,3.6-.97,9.38-1.47,16.58-.03,0-.06,0-.09,0-.53-.05-1.17-.4-1.17-1.23,0-.67,0-9.56-.08-16.06-.22-.04-.08.24-.28.2-.37-.08-.71-1.14-1.05-1.23-.17,4.64-.37,13.04-.17,17.04,0,0-.09,2.54,2.56,2.89l.17.02c-.1,1.58-.21,3.21-.3,4.9,0,0-.1,2.18,2.18,2.72,0,0,.26.05.58.07-.27,2.1-.53,4.23-.77,6.34,0,0-.34,2.57,2.66,2.89,2.46.26,2.79-2.37,2.79-2.37,0,0,2.29-17.21,6.46-34.09-.48.16-.96.31-1.44.45-.21.06-.41.12-.62.17Z"/>
    <g>
      <path class="cls-4" d="m28.06,43.72c.95,0,1.76-.8,2.03-1.9.07-.26.1-.54.1-.83,0-1.51-.95-2.74-2.13-2.74s-2.14,1.23-2.14,2.74c0,.1,0,.19.01.28.11,1.38,1.02,2.45,2.13,2.45Z"/>
      <path class="cls-4" d="m33.18,38.25c-1.18,0-2.14,1.23-2.14,2.74,0,.27.03.53.09.78.26,1.13,1.08,1.95,2.05,1.95,1.11,0,2.02-1.09,2.12-2.48,0-.09.01-.17.01-.26,0-1.51-.95-2.74-2.13-2.74Z"/>
    </g>
    <g>
      <path class="cls-2" d="m45.82,37.56c.04-.08.09-.15.13-.23h0c-.04.08-.09.15-.13.23Z"/>
      <path class="cls-2" d="m45.95,37.32c-1.93-.01-3.86-.12-5.77-.34,1.92.22,3.84.33,5.77.34Z"/>
      <path class="cls-2" d="m46.72,35.48c.19-.65.29-1.32.24-1.98.06.66-.05,1.33-.24,1.98Z"/>
      <path class="cls-2" d="m39.46,44.52c1.79-1.34,3.29-2.94,4.13-3.92-.85.98-2.34,2.57-4.13,3.92Z"/>
      <path class="cls-2" d="m43.79,40.37c.24-.29.41-.5.5-.61-.08.11-.25.32-.5.61Z"/>
      <path class="cls-2" d="m46.15,36.91c-.07.14-.13.28-.2.42-.4.74-.84,1.37-1.15,1.79.32-.42.75-1.05,1.15-1.79.07-.13.14-.28.2-.42Z"/>
      <path class="cls-2" d="m44.39,39.64c.06-.08.19-.24.36-.45-.17.22-.3.38-.36.45Z"/>
      <path class="cls-2" d="m44.84,30.33c.32.22.62.47.9.74.14.14.27.28.39.43.36.44.63.95.76,1.51.04.17.06.34.07.51-.01-.17-.04-.34-.07-.51-.25-1.12-1.09-2-2.04-2.67Z"/>
      <path class="cls-2" d="m45.82,37.56c.04-.08.09-.15.13-.23.16-.29.3-.6.43-.92.08-.19.16-.38.23-.57-.04.13-.1.25-.15.38-.1.24-.2.47-.31.7-.07.14-.13.28-.2.42-.4.74-.84,1.37-1.15,1.79-.19.25-.34.43-.41.52.06-.08.19-.24.36-.45.29-.38.69-.95,1.07-1.63Z"/>
      <path class="cls-2" d="m43.79,40.37c-.06.07-.13.15-.2.23-.85.98-2.34,2.57-4.13,3.92-.3.22-.61.44-.92.65-.16.1-.32.2-.48.3h0c1.92-1.16,3.63-2.8,4.78-4.03.38-.41.7-.78.95-1.07Z"/>
      <path class="cls-9" d="m38.51,43.85c.43-1.59,1.09-4.17,1.67-6.87,1.92.22,3.84.33,5.77.34-.04.08-.09.15-.13.23-.39.68-.78,1.25-1.07,1.63-.17.22-.3.38-.36.45-.02.02-.04.05-.05.06,0,.01-.03.03-.05.07-.08.11-.25.32-.5.61-.25.29-.57.66-.95,1.07-1.15,1.23-2.86,2.86-4.78,4.03,0,0,.12-.41.3-1.1.04-.16.09-.33.14-.51Z"/>
      <path class="cls-9" d="m40.18,36.98h0c1.92.22,3.84.33,5.77.34,0,0,0,0,0,0-1.93-.01-3.86-.12-5.77-.34Z"/>
      <path class="cls-9" d="m45.95,37.32h0c-1.93-.01-3.86-.12-5.77-.34h0c1.92.22,3.84.33,5.77.34Z"/>
      <path class="cls-9" d="m45.82,37.56c-.39.68-.78,1.25-1.07,1.63.29-.38.69-.95,1.07-1.63Z"/>
      <path class="cls-7" d="m41.33,28.71s.08.02.21.06c.41.12,1.34.44,2.32.96,1.3.7,2.69,1.77,3.02,3.27.04.17.06.34.07.51.05.58-.02,1.17-.17,1.75-.05.19-.11.38-.17.57-.07.2-.15.39-.23.58-.13.32-.28.63-.43.92-1.93-.01-3.86-.12-5.77-.34.11-.53.22-1.06.33-1.59.1-.53.2-1.06.29-1.58.13-.72.23-1.43.32-2.11.14-1.12.23-2.15.22-3Z"/>
      <path class="cls-7" d="m43.86,29.73c.33.17.66.37.98.6.96.67,1.8,1.55,2.04,2.67.04.17.06.34.07.51-.01-.17-.04-.34-.07-.51-.33-1.49-1.72-2.57-3.02-3.27Z"/>
      <path class="cls-4" d="m44.34,39.69s.03-.03.05-.06c-.02.02-.04.05-.04.05-.02.03-.14.18-.33.41-.06.08-.14.17-.22.26.24-.29.41-.5.5-.61.03-.04.05-.06.05-.07Z"/>
      <path class="cls-4" d="m46.78,35.25c.15-.58.22-1.17.17-1.75.06.66-.05,1.33-.24,1.98-.03.11-.06.23-.1.34.06-.19.12-.38.17-.57Z"/>
      <path class="cls-4" d="m46.95,33.5c.05.58-.02,1.17-.17,1.75.15-.58.22-1.17.17-1.75Z"/>
      <path class="cls-4" d="m43.35,43.41c-1.32,1.35-2.9,2.68-4.7,3.67.41-.24.82-.5,1.23-.77.81-.55,1.6-1.17,2.36-1.85.38-.34.75-.69,1.11-1.05Z"/>
      <path class="cls-4" d="m41.41,26.93l-3.96,20.76c.16-.07.33-.15.49-.22.25-.12.48-.25.72-.38.41-.24.82-.49,1.23-.77.81-.55,1.6-1.17,2.36-1.85.38-.34.75-.69,1.12-1.06,0,0,0,0,0,0,0,0,0,0,0,0,.22-.21.42-.42.61-.64.19-.19.37-.4.54-.61h0c.1-.11.18-.22.27-.32.15-.16.29-.33.42-.51.1-.11.19-.23.28-.34.03-.03.06-.06.07-.09.19-.24.38-.48.55-.73.1-.12.18-.24.26-.37.17-.22.32-.45.46-.68.08-.12.16-.24.23-.36.51-.79.81-1.36.88-1.56.29-.8,1.71-3.72-.25-6.53-1.89-2.72-6.04-3.69-6.29-3.74Zm-.49,6.17c.27-1.66.43-3.2.42-4.39,0,0,.08.02.21.06.41.12,1.34.44,2.32.96.65.35,1.33.79,1.88,1.34.14.14.27.28.39.43.36.44.63.95.76,1.51.04.17.06.34.07.51.06.66-.05,1.33-.24,1.98-.03.11-.06.23-.1.34h0c-.05.13-.1.26-.15.39-.1.24-.2.47-.31.7-.07.14-.13.28-.2.42-.4.74-.84,1.37-1.15,1.79-.19.25-.34.43-.41.52-.02.02-.04.05-.04.05-.02.03-.14.18-.33.41-.06.08-.14.17-.22.26-.06.07-.13.15-.2.23-.85.98-2.34,2.57-4.13,3.92-.3.22-.61.44-.92.65-.16.1-.32.2-.48.3h0s0,0,0,0c0,0,.04-.15.12-.43.08-.28.19-.68.32-1.18.27-.99.63-2.37,1-3.93.22-.93.45-1.93.67-2.94.23-1.06.44-2.13.62-3.17.04-.24.08-.48.12-.72Z"/>
      <path class="cls-4" d="m46.12,31.49c.36.44.63.95.76,1.51-.12-.56-.4-1.06-.76-1.51Z"/>
      <path class="cls-4" d="m44.39,39.64s-.04.05-.04.05c-.02.03-.14.18-.33.41.19-.24.31-.38.33-.41,0,0,.03-.03.04-.05Z"/>
      <path class="cls-4" d="m43.36,43.41s0,0,0,0c-.36.36-.73.72-1.11,1.05.38-.34.75-.69,1.12-1.06Z"/>
    </g>
  </g>
</svg>